HIERARCHY
ROOT Hips
{
	OFFSET 0.000000 0.000000 0.000000
	CHANNELS 6 Xposition Yposition Zposition Xrotation Yrotation Zrotation
	JOINT LeftUpLeg_virtual
	{
		OFFSET 0.000000 0.000000 0.000000
		CHANNELS 3 Xrotation Yrotation Zrotation
		JOINT LeftUpLeg
		{
			OFFSET 10.205400 -3.823500 0.155100
			CHANNELS 3 Xrotation Yrotation Zrotation
			JOINT LeftLeg
			{
				OFFSET 0.708757 -12.982077 0.567790
				CHANNELS 3 Xrotation Yrotation Zrotation
				JOINT LeftFoot
				{
					OFFSET -0.708756 -10.717838 -2.184338
					CHANNELS 3 Xrotation Yrotation Zrotation
					JOINT LeftToeBase
					{
						OFFSET 0.108149 -7.191104 7.560241
						CHANNELS 3 Xrotation Yrotation Zrotation
						JOINT LeftToe_End
						{
							OFFSET 0.070230 0.081724 4.490308
							CHANNELS 3 Xrotation Yrotation Zrotation
							End Site
							{
								OFFSET 0 0 0
							}
						}
					}
				}
			}
		}
	}
	JOINT RightUpLeg_virtual
	{
		OFFSET 0.000000 0.000000 0.000000
		CHANNELS 3 Xrotation Yrotation Zrotation
		JOINT RightUpLeg
		{
			OFFSET -10.205400 -3.823500 0.005500
			CHANNELS 3 Xrotation Yrotation Zrotation
			JOINT RightLeg
			{
				OFFSET -0.708756 -12.982134 0.610632
				CHANNELS 3 Xrotation Yrotation Zrotation
				JOINT RightFoot
				{
					OFFSET 0.708754 -10.717769 -1.945823
					CHANNELS 3 Xrotation Yrotation Zrotation
					JOINT RightToeBase
					{
						OFFSET -0.108140 -7.191069 7.372968
						CHANNELS 3 Xrotation Yrotation Zrotation
						JOINT RightToe_End
						{
							OFFSET -0.070227 0.081735 4.479403
							CHANNELS 3 Xrotation Yrotation Zrotation
							End Site
							{
								OFFSET 0 0 0
							}
						}
					}
				}
			}
		}
	}
	JOINT Spine_virtual
	{
		OFFSET 0.000000 0.000000 0.000000
		CHANNELS 3 Xrotation Yrotation Zrotation
		JOINT Spine
		{
			OFFSET 0.000000 6.876099 0.125700
			CHANNELS 3 Xrotation Yrotation Zrotation
			JOINT Spine1
			{
				OFFSET 0.000000 5.730043 0.104720
				CHANNELS 3 Xrotation Yrotation Zrotation
				JOINT Spine1_split
				{
					OFFSET 0.000000 5.730043 0.104720
					CHANNELS 3 Xrotation Yrotation Zrotation
					JOINT Spine2
					{
						OFFSET 0.000000 5.730043 0.104720
						CHANNELS 3 Xrotation Yrotation Zrotation
						JOINT Neck_virtual
						{
							OFFSET 0.000000 0.000000 0.000000
							CHANNELS 3 Xrotation Yrotation Zrotation
							JOINT Neck
							{
								OFFSET 0.000000 10.314075 0.188496
								CHANNELS 3 Xrotation Yrotation Zrotation
								JOINT Head
								{
									OFFSET 0.000000 7.643700 -2.377400
									CHANNELS 3 Xrotation Yrotation Zrotation
									JOINT HeadTop_End
									{
										OFFSET 0.000000 43.788605 -13.619600
										CHANNELS 3 Xrotation Yrotation Zrotation
										End Site
										{
											OFFSET 0 0 0
										}
									}
								}
							}
						}
						JOINT LeftShoulder_virtual
						{
							OFFSET 0.000000 0.000000 0.000000
							CHANNELS 3 Xrotation Yrotation Zrotation
							JOINT LeftShoulder
							{
								OFFSET 2.196100 4.412489 0.087492
								CHANNELS 3 Xrotation Yrotation Zrotation
								JOINT LeftShoulder_split
								{
									OFFSET 2.196100 4.412489 0.087492
									CHANNELS 3 Xrotation Yrotation Zrotation
									JOINT LeftArm
									{
										OFFSET 8.771219 -2.981674 -0.026999
										CHANNELS 3 Xrotation Yrotation Zrotation
										JOINT LeftForeArm
										{
											OFFSET 8.512804 0.000000 -0.000000
											CHANNELS 3 Xrotation Yrotation Zrotation
											JOINT LeftHand
											{
												OFFSET 18.484802 0.000000 -0.000000
												CHANNELS 3 Xrotation Yrotation Zrotation
												End Site
												{
													OFFSET 0 0 0
												}
											}
										}
									}
								}
							}
						}
						JOINT RightShoulder_virtual
						{
							OFFSET 0.000000 0.000000 0.000000
							CHANNELS 3 Xrotation Yrotation Zrotation
							JOINT RightShoulder
							{
								OFFSET -2.196100 4.412496 0.070690
								CHANNELS 3 Xrotation Yrotation Zrotation
								JOINT RightShoulder_split
								{
									OFFSET -2.196100 4.412496 0.070690
									CHANNELS 3 Xrotation Yrotation Zrotation
									JOINT RightArm
									{
										OFFSET -8.771282 -2.981682 -0.094208
										CHANNELS 3 Xrotation Yrotation Zrotation
										JOINT RightForeArm
										{
											OFFSET -8.494598 0.000000 0.000000
											CHANNELS 3 Xrotation Yrotation Zrotation
											JOINT RightHand
											{
												OFFSET -18.483803 0.000000 0.000001
												CHANNELS 3 Xrotation Yrotation Zrotation
												End Site
												{
													OFFSET 0 0 0
												}
											}
										}
									}
								}
							}
						}
					}
				}
			}
		}
	}
}
MOTION
Frames: 11
Frame Time: 0.03333333
2.485039 5.095345 75.139183 0.000000 0.000000 0.000000 -95.115220 -1.933461 -0.905974 -48.385101 -36.413016 29.930244 101.781409 -8.509021 4.672435 17.322811 -6.937831 -13.792114 -6.831645 0.177789 1.053375 0.000000 0.000000 0.000000 -98.524734 0.465977 0.375614 -51.542513 9.062499 -25.684107 98.692415 11.214949 -3.232970 6.987267 -1.212630 13.602864 9.936879 0.749678 2.033965 0.000000 0.000000 0.000000 -96.364769 -1.770145 -2.608686 5.274910 -1.654408 2.265742 2.537373 -0.192782 -0.027470 0.611353 -1.134327 -0.160466 0.000000 0.000000 0.000000 1.036450 -0.643223 0.757966 10.191082 -1.681774 1.129314 20.489162 0.182522 0.403473 0.000000 0.000000 0.000000 0.098102 -0.238068 0.158527 0.116735 -15.836833 -5.236473 -4.190341 5.291992 -1.997215 66.700349 -21.330551 -39.663557 -0.764203 -39.513478 -0.801461 0.000000 0.000000 0.000000 0.418777 -0.980861 0.129228 -2.136723 4.189617 16.735483 9.684028 6.884693 -3.939591 71.045237 26.188508 23.283280 -0.074734 22.796216 0.133628 0.000000 0.000000 0.000000 
2.533482 5.071161 75.105103 0.000000 0.000000 0.000000 -95.370519 -2.230742 -1.019008 -48.689290 -36.296749 28.331857 101.168332 -7.494222 4.531571 16.397042 -6.254064 -12.682073 -6.952675 0.162605 0.900318 0.000000 0.000000 0.000000 -98.359444 0.065961 0.170168 -51.321235 8.016700 -26.699138 97.701696 11.042818 -3.398634 5.436130 -0.956662 14.361204 10.305691 0.821713 2.084512 0.000000 0.000000 0.000000 -96.490328 -1.888513 -2.789022 5.804537 -1.664264 1.955631 2.673988 -0.194073 0.018314 0.572142 -0.978613 -0.107768 0.000000 0.000000 0.000000 1.206349 -0.611903 0.739959 10.910707 -2.264116 1.200722 22.259496 -0.803073 0.511405 0.000000 0.000000 0.000000 0.173446 -0.206471 0.249585 0.247409 -16.039755 -5.576931 -3.543226 5.683226 -2.148620 66.147466 -20.648524 -39.847638 -1.235724 -40.507977 -1.098765 0.000000 0.000000 0.000000 0.496729 -0.978234 0.114024 -2.399953 3.750089 17.294932 10.200895 6.848535 -3.971609 69.385904 25.271529 23.391774 -0.193012 22.987073 0.402689 0.000000 0.000000 0.000000 
2.571754 5.040098 75.123428 0.000000 0.000000 0.000000 -95.533337 -2.689682 -1.305189 -48.913303 -35.642010 27.256746 100.606549 -6.428394 4.292110 15.545929 -5.617436 -11.683123 -7.482895 0.145908 0.779536 0.000000 0.000000 0.000000 -98.141035 -0.320278 -0.062735 -50.694057 6.524637 -27.964463 96.306726 10.934792 -3.407677 3.742058 -0.460093 15.441307 10.454727 0.816032 1.991346 0.000000 0.000000 0.000000 -96.648550 -2.017455 -2.957191 6.461937 -1.721136 1.596309 2.916302 -0.213301 0.063089 0.717924 -1.033533 -0.174736 0.000000 0.000000 0.000000 1.405996 -0.608868 0.721345 11.793485 -2.704987 1.144087 23.822399 -1.647955 0.516941 0.000000 0.000000 0.000000 0.330288 -0.219282 0.303095 0.425893 -15.871165 -5.894074 -2.706654 5.827911 -2.206181 65.420979 -19.796158 -39.565261 -2.027351 -40.984663 -1.571128 0.000000 0.000000 0.000000 0.651999 -1.001307 0.085496 -2.633210 3.413285 17.662569 10.686889 6.855321 -4.025902 67.235583 24.373831 23.916481 -0.366311 23.387886 0.652141 0.000000 0.000000 0.000000 
2.590976 5.006960 75.172264 0.000000 0.000000 0.000000 -95.575281 -3.199266 -1.714302 -49.372835 -34.702702 26.665494 100.323724 -5.623287 4.126638 15.316288 -5.449415 -11.141579 -8.266511 0.095423 0.792968 0.000000 0.000000 0.000000 -97.891719 -0.633418 -0.314722 -49.603747 4.592801 -29.252293 94.443088 10.849850 -3.255627 1.798721 0.139135 16.723336 10.494144 0.747501 1.744207 0.000000 0.000000 0.000000 -96.751829 -2.132244 -3.120792 7.168313 -1.814893 1.269063 3.266841 -0.231224 0.108080 0.848187 -1.210879 -0.228127 0.000000 0.000000 0.000000 1.653803 -0.631278 0.713979 12.803915 -3.014218 0.963275 25.135967 -2.299980 0.443311 0.000000 0.000000 0.000000 0.578322 -0.258697 0.329269 0.650527 -15.258166 -6.322678 -1.755853 5.701341 -2.096142 64.410480 -18.832100 -38.716436 -2.916351 -41.085644 -2.050279 0.000000 0.000000 0.000000 0.914188 -1.037833 0.065751 -2.854106 3.339040 18.011576 11.006369 6.952864 -4.118672 64.898996 23.607166 24.736587 -0.524584 23.731470 0.838423 0.000000 0.000000 0.000000 
2.587805 4.989523 75.209961 0.000000 0.000000 0.000000 -95.470479 -3.604065 -2.133183 -50.292237 -33.694300 26.277537 100.418595 -5.200054 4.094406 15.731758 -5.733572 -10.996542 -8.989355 0.009732 0.947290 0.000000 0.000000 0.000000 -97.642281 -0.830242 -0.564973 -48.019457 2.352050 -30.368910 92.068956 10.754468 -2.992555 -0.410477 0.669484 18.034734 10.614901 0.659203 1.374309 0.000000 0.000000 0.000000 -96.668268 -2.243001 -3.320470 7.810690 -1.924744 1.056957 3.682748 -0.234738 0.153896 0.888683 -1.435331 -0.411310 0.000000 0.000000 0.000000 1.960736 -0.679837 0.709059 13.840222 -3.185823 0.689480 26.186580 -2.799410 0.349369 0.000000 0.000000 0.000000 0.905849 -0.306046 0.335952 0.918153 -14.076863 -7.002418 -0.709010 5.274957 -1.867984 63.236541 -17.895828 -37.267462 -3.686867 -41.203236 -2.418615 0.000000 0.000000 0.000000 1.286334 -1.086718 0.060612 -3.081484 3.616653 18.455981 11.042538 7.098398 -4.129338 62.603321 23.008346 25.597020 -0.638407 23.781120 0.953641 0.000000 0.000000 0.000000 
2.593327 4.988480 75.225494 0.000000 0.000000 0.000000 -95.156911 -3.823644 -2.473314 -51.689892 -32.846462 25.781630 100.827574 -4.995646 4.187610 16.525392 -6.219107 -11.036320 -9.332519 -0.083562 1.125675 0.000000 0.000000 0.000000 -97.314418 -0.909564 -0.821514 -45.978112 0.013345 -31.172444 89.206799 10.606587 -2.630808 -2.754802 1.000379 19.274101 10.855845 0.578659 0.966244 0.000000 0.000000 0.000000 -96.357782 -2.382069 -3.606628 8.341438 -2.025785 1.011569 4.138110 -0.223711 0.190352 0.790068 -1.592491 -0.483879 0.000000 0.000000 0.000000 2.338165 -0.745778 0.704286 14.791285 -3.256602 0.381957 27.077139 -3.156366 0.265675 0.000000 0.000000 0.000000 1.307091 -0.355012 0.320464 1.242286 -12.316922 -8.006437 0.323890 4.589811 -1.521369 61.966680 -17.152727 -35.267651 -4.248575 -41.463118 -2.657484 0.000000 0.000000 0.000000 1.763825 -1.134551 0.061216 -3.320277 4.198865 19.013133 10.779035 7.242642 -4.115846 60.483422 22.492853 26.241337 -0.707461 23.578202 1.005226 0.000000 0.000000 0.000000 
2.616690 5.001722 75.179474 0.000000 0.000000 0.000000 -94.739252 -3.868153 -2.732158 -53.345970 -32.270547 24.959251 101.358081 -4.786066 4.319215 17.370933 -6.615067 -10.913326 -9.484460 -0.174973 1.308468 0.000000 0.000000 0.000000 -96.915029 -0.853647 -1.041915 -43.529096 -2.189910 -31.537213 86.025010 10.420271 -2.266829 -5.052271 1.082341 20.405608 11.093380 0.500371 0.595742 0.000000 0.000000 0.000000 -95.795391 -2.524883 -3.932306 8.759864 -2.082732 1.135587 4.627702 -0.198505 0.202423 0.613726 -1.690545 -0.535265 0.000000 0.000000 0.000000 2.783196 -0.821490 0.684573 15.553466 -3.271612 0.114903 27.913856 -3.441978 0.238611 0.000000 0.000000 0.000000 1.781374 -0.414458 0.275592 1.683593 -10.016630 -9.303500 1.229258 3.856694 -1.184667 60.665440 -16.678282 -32.751293 -4.617838 -41.692250 -2.841541 0.000000 0.000000 0.000000 2.317493 -1.176291 0.054866 -3.551780 5.001969 19.653279 10.268582 7.400683 -4.118355 58.451980 21.871627 26.620809 -0.754985 23.409363 1.045863 0.000000 0.000000 0.000000 
2.661662 5.023113 75.111816 0.000000 0.000000 0.000000 -94.223259 -3.837713 -2.963262 -55.112994 -31.856214 23.776572 101.832076 -4.477412 4.435415 17.990196 -6.772414 -10.464076 -9.661134 -0.254138 1.453861 0.000000 0.000000 0.000000 -96.420367 -0.725038 -1.237283 -40.839101 -4.118703 -31.476732 82.696215 10.191269 -1.946311 -7.135561 0.910300 21.436981 11.149844 0.410026 0.308681 0.000000 0.000000 0.000000 -95.018853 -2.683592 -4.292852 9.105094 -2.073310 1.367104 5.160380 -0.174456 0.184970 0.547845 -1.738823 -0.563207 0.000000 0.000000 0.000000 3.273769 -0.904897 0.634782 16.056264 -3.238605 -0.066417 28.756172 -3.673182 0.282353 0.000000 0.000000 0.000000 2.338352 -0.496817 0.190227 2.283252 -7.177040 -10.750051 1.946481 2.969195 -0.752164 59.492758 -16.516027 -29.717026 -4.866810 -41.724164 -3.037351 0.000000 0.000000 0.000000 2.926496 -1.221350 0.021873 -3.760856 5.837211 20.266460 9.743305 7.563858 -4.082293 56.447579 20.971464 26.818895 -0.787153 23.577975 1.068339 0.000000 0.000000 0.000000 
2.726412 5.040716 75.033722 0.000000 0.000000 0.000000 -93.581870 -3.880604 -3.246359 -56.891299 -31.546407 22.413612 102.179309 -4.076174 4.535810 18.411473 -6.763565 -9.678328 -9.940024 -0.327336 1.544711 0.000000 0.000000 0.000000 -95.773835 -0.645514 -1.455326 -38.100554 -5.726840 -31.025591 79.272562 9.905630 -1.664995 -8.935296 0.527853 22.343043 10.939738 0.282358 0.121151 0.000000 0.000000 0.000000 -94.116824 -2.844065 -4.656826 9.439696 -1.981573 1.624137 5.751324 -0.154640 0.139294 0.604506 -1.766059 -0.498129 0.000000 0.000000 0.000000 3.790647 -0.984522 0.553209 16.308837 -3.164401 -0.129579 29.611404 -3.825050 0.391220 0.000000 0.000000 0.000000 2.963640 -0.602389 0.068902 3.064052 -3.912105 -12.168726 2.357873 2.075550 -0.395531 58.437596 -16.602149 -26.173760 -5.124632 -41.320862 -3.317372 0.000000 0.000000 0.000000 3.551780 -1.263463 -0.050403 -3.921201 6.557049 20.822877 9.398341 7.733543 -4.045000 54.342013 19.720983 27.075701 -0.787549 24.289271 1.080742 0.000000 0.000000 0.000000 
2.786442 5.053923 74.988113 0.000000 0.000000 0.000000 -92.785709 -4.085306 -3.628026 -58.663498 -31.197289 21.186591 102.381606 -3.685784 4.562738 18.685118 -6.670656 -8.548403 -10.296566 -0.400888 1.605770 0.000000 0.000000 0.000000 -95.007153 -0.669143 -1.707820 -35.470784 -7.008382 -30.222204 75.787055 9.580081 -1.418882 -10.416904 0.025392 23.040779 10.586190 0.126807 0.015334 0.000000 0.000000 0.000000 -93.108695 -2.979264 -4.981803 9.793609 -1.802372 1.826285 6.383011 -0.138515 0.067548 0.762356 -1.848276 -0.447568 0.000000 0.000000 0.000000 4.321839 -1.046355 0.431306 16.303146 -3.048013 -0.067685 30.399362 -3.896449 0.582265 0.000000 0.000000 0.000000 3.638391 -0.713727 -0.074081 4.010893 -0.342730 -13.406333 2.464064 1.153313 -0.177837 57.466794 -16.804022 -22.195924 -5.440303 -40.575627 -3.694049 0.000000 0.000000 0.000000 4.162924 -1.304692 -0.158608 -4.027861 7.102814 21.295169 9.294819 7.907418 -3.969638 52.036267 18.233195 27.559514 -0.758843 25.381116 1.085484 0.000000 0.000000 0.000000 
2.830782 5.063107 74.959282 0.000000 0.000000 0.000000 -91.764520 -4.456302 -4.097999 -60.503393 -30.767455 20.290615 102.466839 -3.344225 4.481682 18.805751 -6.476521 -7.181059 -10.499735 -0.455418 1.574464 0.000000 0.000000 0.000000 -94.078520 -0.827907 -2.000050 -33.035026 -8.018988 -29.166281 72.133573 9.197954 -1.127635 -11.514894 -0.488710 23.366982 10.376157 -0.007617 -0.018037 0.000000 0.000000 0.000000 -92.007586 -3.150906 -5.346303 10.172746 -1.548111 1.918197 7.029513 -0.116015 -0.020896 0.915482 -1.833021 -0.398100 0.000000 0.000000 0.000000 4.856436 -1.078904 0.285868 16.072878 -2.889654 0.104782 31.052171 -3.882040 0.848693 0.000000 0.000000 0.000000 4.320517 -0.798717 -0.224212 5.058237 3.303180 -14.405023 2.346738 0.228167 -0.083293 56.464522 -17.059641 -17.946839 -5.808569 -39.750502 -4.119360 0.000000 0.000000 0.000000 4.752196 -1.328202 -0.293920 -4.097906 7.464541 21.722385 9.417466 8.101786 -3.832823 49.510996 16.707097 28.300593 -0.683485 26.403532 1.066619 0.000000 0.000000 0.000000 
